<?xml version="1.0" encoding="utf-8"?>
<!-- Generator: Adobe Illustrator 21.0.2, SVG Export Plug-In . SVG Version: 6.00 Build 0)  -->
<svg version="1.1" id="Warstwa_1" xmlns="http://www.w3.org/2000/svg" xmlns:xlink="http://www.w3.org/1999/xlink" x="0px" y="0px"
	 viewBox="0 0 707.1 200" style="enable-background:new 0 0 707.1 200;" xml:space="preserve">
<style type="text/css">
	.st0{fill-opacity:0;}
	.st1{fill:#1EA7D6;}
	.st2{fill:#FFF9BB;}
	.st3{fill:#FFEB97;}
	.st4{fill:#FFF1A9;}
	.st5{fill:#FFEA96;}
	.st6{fill:#828240;}
	.st7{fill:#69BE5D;}
	.st8{fill:#9DC85C;}
	.st9{fill:#D6EB76;}
	.st10{fill:#CCE16B;}
	.st11{fill:#D0D75B;}
	.st12{fill:#D8C34A;}
	.st13{fill:#D0B459;}
</style>
<polygon class="st0" points="86.6,100 0,50 0,150 "/>
<g>
	<path class="st1" d="M626.8,68.5c-3.5,0-6.6,0.6-9.4,1.8c-2.8,1.2-5.1,2.8-7,4.9s-3.4,4.7-4.4,7.7s-1.5,6.4-1.5,10.1l-0.1,58.5
		h-18.2l0.1-58.5c0-5.8,0.9-11.2,2.8-16.1c1.9-4.9,4.6-9.2,8.1-12.8c3.5-3.6,7.8-6.4,12.8-8.4s10.6-3,16.9-3s11.9,1,16.9,3
		s9.2,4.8,12.7,8.4c3.5,3.6,6.2,7.8,8,12.8c1.9,4.9,2.8,10.3,2.8,16.1l-0.1,58.5H649l0.1-58.4c0-3.7-0.5-7.1-1.5-10.1
		s-2.5-5.6-4.4-7.7s-4.2-3.8-7-5C633.5,69.1,630.3,68.5,626.8,68.5z"/>
	<path class="st1" d="M706.2,150.3H688V52.7h18.2V150.3z"/>
	<path class="st1" d="M665,105.1v18.2h-75v-18.2C590,105.1,665,105.1,665,105.1z"/>
</g>
<g>
	<g>
		<circle class="st2" cx="93.3" cy="99.4" r="88.8"/>
	</g>
	<g>
		<path class="st3" d="M136.9,34.5c-0.6,0-1.1,0.1-1.7,0.3c-1.7-2.4-4.5-4-7.7-4s-6,1.6-7.7,4c-0.5-0.2-1.1-0.3-1.7-0.3
			c-3.1,0-5.6,2.5-5.6,5.6h29.9C142.5,37.1,140,34.5,136.9,34.5z"/>
	</g>
	<g>
		<path class="st4" d="M109.6,60.1c-0.5,0-0.9,0.1-1.4,0.2c-1.4-2-3.6-3.2-6.2-3.2s-4.8,1.3-6.2,3.2c-0.4-0.1-0.9-0.2-1.4-0.2
			c-2.5,0-4.5,2-4.5,4.5H114C114.2,62.2,112.1,60.1,109.6,60.1z"/>
	</g>
	<g>
		<path class="st3" d="M58.3,41.2c0-5.5,4.5-10,10-10c0.8,0,1.6,0.1,2.4,0.3c2.6-2.8,6.3-4.6,10.5-4.6c7.9,0,14.3,6.4,14.3,14.3
			H58.3L58.3,41.2z"/>
	</g>
	<g>
		<path class="st3" d="M79.2,46.3c0-4.2,3.4-7.6,7.5-7.6c0.6,0,1.2,0.1,1.8,0.2c2-2.1,4.7-3.5,7.8-3.5c5.9,0,10.7,4.9,10.7,10.9
			C107,46.3,79.2,46.3,79.2,46.3z"/>
	</g>
	<g>
		<path class="st4" d="M74.2,58.9c0-2.1,1.7-3.8,3.7-3.8c0.3,0,0.6,0.1,0.9,0.1c1-1.1,2.4-1.8,3.9-1.8c3,0,5.4,2.4,5.4,5.4
			L74.2,58.9L74.2,58.9z"/>
	</g>
	<g>
		<path class="st5" d="M182,99.4c0-7.3-0.9-14.4-2.6-21.2l-1-0.6c-32.7,0-62.9,21.8-101.3,21.8c-31.4,0,54,3.6,104.8,3.9
			C182,102,182,100.7,182,99.4z"/>
	</g>
	<g>
		<path class="st3" d="M4.8,99.4c0-7.3,0.9-14.4,2.6-21.2l1-0.6c32.7,0,34.8,21.8,73.3,21.8c31.4,0-25.9,3.6-76.8,3.9
			C4.9,102,4.8,100.7,4.8,99.4z"/>
	</g>
	<g>
		<g>
			<g>
				<path class="st6" d="M62.8,102.2c-0.7,0-1.2-0.5-1.2-1.2V88.3c0-0.7,0.5-1.2,1.2-1.2s1.2,0.5,1.2,1.2V101
					C64,101.7,63.4,102.2,62.8,102.2z"/>
			</g>
		</g>
		<g>
			<path class="st7" d="M71.2,85c0,6.4-3.8,9.7-8.4,9.7s-8.4-3.2-8.4-9.7s5.1-31.6,8.4-31.6C66,53.4,71.2,78.5,71.2,85z"/>
		</g>
		<g>
			<path class="st8" d="M62.8,53.4c-0.6,0-1.4,1-2.1,2.6c2.7,4,6.1,23.9,6.1,29.4c0,5.4-2.4,8.4-5.6,9.1c0.5,0.1,1,0.1,1.6,0.1
				c4.6,0,8.4-3.2,8.4-9.7S66,53.4,62.8,53.4z"/>
		</g>
	</g>
	<g>
		<path class="st9" d="M93.3,188.2c49,0,88.8-39.7,88.8-88.8H4.5C4.5,148.4,44.2,188.2,93.3,188.2z"/>
	</g>
	<g>
		<path class="st10" d="M19.5,111.7C-3.1,114.9,66,127.9,66,127.9s101.4,9.5,104.4,9.5c0.5,0,1.5,0.2,2.8,0.4
			c4.3-8.9,7.1-18.7,8.2-29C138.1,117.4,89.8,101.7,19.5,111.7z"/>
	</g>
	<g>
		<path class="st11" d="M93.3,188.2c40.4,0,74.4-26.9,85.2-63.8c-69.4-0.3-109.9-19.3-173-11.4C12.1,155.6,48.9,188.2,93.3,188.2z"
			/>
	</g>
	<g>
		<path class="st12" d="M9.6,129.2c6.1,17.1,17.3,31.8,31.8,42.2l117.5-12.3c6.5-7.1,11.8-15.3,15.7-24.3
			C122,133.6,48,124.6,9.6,129.2z"/>
	</g>
	<g>
		<path class="st13" d="M93.3,188.2c35.4,0,65.9-20.7,80.2-50.7c-53.3,0-105.6,0-151.2,15.1C38.4,174.2,64.2,188.2,93.3,188.2z"/>
	</g>
	<g>
		<g>
			<g>
				<path class="st6" d="M129.3,106.9c-1,0-1.7-0.8-1.7-1.7V86.6c0-1,0.8-1.7,1.7-1.7c1,0,1.7,0.8,1.7,1.7v18.6
					C131,106.1,130.3,106.9,129.3,106.9z"/>
			</g>
		</g>
		<g>
			<path class="st7" d="M141.5,81.8c0,9.4-5.5,14.1-12.2,14.1c-6.8,0-12.2-4.7-12.2-14.1s7.5-46,12.2-46S141.5,72.4,141.5,81.8z"/>
		</g>
		<g>
			<path class="st8" d="M129.3,35.8c-0.9,0-2,1.5-3.1,3.8c3.9,5.9,8.9,34.8,8.9,42.8c0,7.8-3.5,12.3-8.1,13.2
				c0.8,0.1,1.5,0.2,2.3,0.2c6.8,0,12.2-4.7,12.2-14.1S134,35.8,129.3,35.8z"/>
		</g>
	</g>
	<g>
		<g>
			<g>
				<path class="st6" d="M43.3,103.4c-0.8,0-1.5-0.7-1.5-1.5V85.5c0-0.8,0.7-1.5,1.5-1.5s1.5,0.7,1.5,1.5v16.4
					C44.9,102.7,44.2,103.4,43.3,103.4z"/>
			</g>
		</g>
		<g>
			<path class="st7" d="M54.1,81.2c0,8.3-4.8,12.4-10.8,12.4s-10.8-4.2-10.8-12.4s6.6-40.5,10.8-40.5S54.1,73,54.1,81.2z"/>
		</g>
		<g>
			<path class="st8" d="M43.3,40.7c-0.8,0-1.8,1.3-2.7,3.4c3.4,5.2,7.8,30.7,7.8,37.7c0,6.9-3.1,10.8-7.2,11.7
				c0.7,0.1,1.3,0.2,2,0.2c6,0,10.8-4.2,10.8-12.4S47.5,40.7,43.3,40.7z"/>
		</g>
	</g>
	<g>
		<path class="st4" d="M164,45.9L164,45.9c-3.5,0-6.6,1.7-8.5,4.4c-0.6-0.2-1.2-0.3-1.8-0.3c-3.4,0-6.1,2.8-6.1,6.1h23.1
			C168.7,52.6,166.5,49.1,164,45.9z"/>
	</g>
	<g>
		<circle class="st12" cx="65.9" cy="169.1" r="2.3"/>
	</g>
	<g>
		<circle class="st12" cx="73" cy="158.2" r="2.3"/>
	</g>
	<g>
		<circle class="st12" cx="106.7" cy="156.6" r="2.3"/>
	</g>
	<g>
		<circle class="st12" cx="117.1" cy="147.8" r="2.3"/>
	</g>
	<g>
		<circle class="st11" cx="96.8" cy="173.8" r="2.3"/>
	</g>
	<g>
		<circle class="st11" cx="85.2" cy="154.3" r="2.3"/>
	</g>
	<g>
		<circle class="st9" cx="39.3" cy="116" r="1.3"/>
	</g>
	<g>
		<circle class="st10" cx="22.2" cy="120.7" r="1.3"/>
	</g>
	<g>
		<circle class="st10" cx="55.4" cy="123" r="1.3"/>
	</g>
	<g>
		<circle class="st10" cx="32.5" cy="122" r="1.3"/>
	</g>
	<g>
		<circle class="st9" cx="73" cy="124.3" r="1.3"/>
	</g>
	<g>
		<circle class="st9" cx="65.9" cy="118.6" r="1.3"/>
	</g>
	<g>
		<circle class="st9" cx="95.7" cy="122" r="1.3"/>
	</g>
	<g>
		<circle class="st10" cx="87.5" cy="124.3" r="1.3"/>
	</g>
	<g>
		<circle class="st10" cx="105.6" cy="124.3" r="1.3"/>
	</g>
	<g>
		<circle class="st9" cx="127.6" cy="127.9" r="1.3"/>
	</g>
	<g>
		<circle class="st10" cx="144.8" cy="127.3" r="1.3"/>
	</g>
	<g>
		<circle class="st9" cx="155.3" cy="129.2" r="1.3"/>
	</g>
	<g>
		<circle class="st12" cx="121.9" cy="166.8" r="2.3"/>
	</g>
	<g>
		<circle class="st12" cx="143.5" cy="155.9" r="2.3"/>
	</g>
	<g>
		<circle class="st11" cx="133.9" cy="148.2" r="2.3"/>
	</g>
	<g>
		<circle class="st11" cx="150.5" cy="145.5" r="2.3"/>
	</g>
	<g>
		<circle class="st11" cx="50" cy="156.6" r="2.3"/>
	</g>
</g>
<image style="overflow:visible;" width="1127" height="433" xlink:href="../../../../farmAsset 1@3x.png"  transform="matrix(0.3333 0 0 0.3333 208 35.66)">
</image>
</svg>
